HIERARCHY
ROOT Hips
{
	OFFSET -3.958830 18.904000 13.208200
	CHANNELS 6 Xposition Yposition Zposition Zrotation Yrotation Xrotation 
	JOINT LHipJoint
	{
		OFFSET 0.000000 0.000000 0.000000
		CHANNELS 3 Zrotation Yrotation Xrotation
		JOINT LeftUpLeg
		{
			OFFSET 1.800000 -1.400000 0.085000
			CHANNELS 3 Zrotation Yrotation Xrotation
			JOINT LeftLeg
			{
				OFFSET 2.215000 -6.000000 0.000000
				CHANNELS 3 Zrotation Yrotation Xrotation
				JOINT LeftFoot
				{
					OFFSET 2.500000 -6.900000 0.000000
					CHANNELS 3 Zrotation Yrotation Xrotation
					JOINT LeftToeBase
					{
						OFFSET 0.200000 -0.500000 1.950000
						CHANNELS 3 Zrotation Yrotation Xrotation
						End Site
						{
							OFFSET 0.000000 0.000000 0.000000
						}
					}
				}
			}
		}
	}
	JOINT RHipJoint
	{
		OFFSET 0.000000 0.000000 0.000000
		CHANNELS 3 Zrotation Yrotation Xrotation
		JOINT RightUpLeg
		{
			OFFSET -1.800000 -1.400000 0.085000
			CHANNELS 3 Zrotation Yrotation Xrotation
			JOINT RightLeg
			{
				OFFSET -2.215000 -6.000000 0.000000
				CHANNELS 3 Zrotation Yrotation Xrotation
				JOINT RightFoot
				{
					OFFSET -2.500000 -6.900000 0.000000
					CHANNELS 3 Zrotation Yrotation Xrotation
					JOINT RightToeBase
					{
						OFFSET -0.200000 -0.500000 1.950000
						CHANNELS 3 Zrotation Yrotation Xrotation
						End Site
						{
							OFFSET 0.000000 0.000000 0.000000
						}
					}
				}
			}
		}
	}
	JOINT LowerBack
	{
		OFFSET 0.000000 0.000000 0.000000
		CHANNELS 3 Zrotation Yrotation Xrotation
		JOINT Spine
		{
			OFFSET -0.087000 1.940000 -0.288900
			CHANNELS 3 Zrotation Yrotation Xrotation
			JOINT Spine1
			{
				OFFSET 0.000000 1.950000 0.060000
				CHANNELS 3 Zrotation Yrotation Xrotation
				JOINT Neck
				{
					OFFSET 0.000000 0.000000 0.000000
					CHANNELS 3 Zrotation Yrotation Xrotation
					JOINT Neck1
					{
						OFFSET 0.000000 1.600000 0.340000
						CHANNELS 3 Zrotation Yrotation Xrotation
						JOINT Head
						{
							OFFSET 0.000000 1.667000 -0.240000
							CHANNELS 3 Zrotation Yrotation Xrotation
							End Site
							{
								OFFSET 0.000000 0.000000 0.000000
							}
						}
					}
				}
				JOINT LeftShoulder
				{
					OFFSET 0.000000 0.000000 0.000000
					CHANNELS 3 Zrotation Yrotation Xrotation
					JOINT LeftArm
					{
						OFFSET 2.700000 1.550000 -0.730000
						CHANNELS 3 Zrotation Yrotation Xrotation
						JOINT LeftForeArm
						{
							OFFSET 5.450000 0.000000 0.000000
							CHANNELS 3 Zrotation Yrotation Xrotation
							JOINT LeftHand
							{
								OFFSET 3.450000 0.000000 0.000000
								CHANNELS 3 Zrotation Yrotation Xrotation
								JOINT LeftHandIndex1
								{
									OFFSET 0.750000 0.000000 0.000000
									CHANNELS 3 Zrotation Yrotation Xrotation
									End Site
									{
										OFFSET 0.000000 0.000000 0.000000
									}
								}
							}
						}
					}
				}
				JOINT RightShoulder
				{
					OFFSET 0.000000 0.000000 0.000000
					CHANNELS 3 Zrotation Yrotation Xrotation
					JOINT RightArm
					{
						OFFSET -2.700000 1.550000 -0.730000
						CHANNELS 3 Zrotation Yrotation Xrotation
						JOINT RightForeArm
						{
							OFFSET -5.450000 0.000000 0.000000
							CHANNELS 3 Zrotation Yrotation Xrotation
							JOINT RightHand
							{
								OFFSET -3.450000 0.000000 0.000000
								CHANNELS 3 Zrotation Yrotation Xrotation
								JOINT RightHandIndex1
								{
									OFFSET -0.750000 0.000000 0.000000
									CHANNELS 3 Zrotation Yrotation Xrotation
									End Site
									{
										OFFSET 0.000000 0.000000 0.000000
									}
								}
							}
						}
					}
				}
			}
		}
	}
}
MOTION
Frames: 7
Frame Time: 0.016667
0.304860 17.283710 -0.703910 -5.227377 -5.643532 7.298996 -15.293392 12.943228 2.974510 0.034730 -0.863073 -8.327311 -7.726548 4.414949 4.750923 -0.769707 4.725984 3.496229 -0.102920 -0.650120 -0.208800 18.180634 -10.816822 2.593695 -12.521321 0.783013 -10.133408 2.776334 -3.900643 1.939129 -0.318561 -3.835873 3.139218 -0.164390 1.209170 0.768650 -3.228484 -1.248681 -6.955855 4.365764 2.801359 3.184964 2.912150 1.990409 4.815791 2.399232 1.244914 -8.727200 1.846008 4.533733 26.922170 -6.247080 5.773120 -4.196090 -18.095198 -7.987953 3.316855 -30.744792 -5.948685 0.602333 7.739068 -10.124898 -2.141948 -4.708635 2.653236 0.592120 0.750530 -0.236600 0.420530 14.247862 8.134827 4.955239 33.219297 7.890747 -2.640399 -6.679017 13.913348 -1.077497 1.826371 -1.215495 -0.519150 0.528540 0.509050 -0.086780 
0.304530 17.283370 -0.704090 -5.231802 -5.664888 7.295040 -15.294391 12.946802 2.975036 0.035963 -0.866515 -8.321246 -7.705936 4.407529 4.745739 -0.771338 4.724234 3.494832 -0.094900 -0.641230 -0.204640 18.176651 -10.814310 2.588966 -12.892958 0.792769 -10.216133 2.792312 -3.907547 1.957896 -0.320580 -3.844749 3.130347 -0.158870 1.206050 0.771170 -3.222394 -1.261048 -6.956109 4.319215 2.815849 3.224968 2.980197 1.998345 4.795279 2.367863 1.236247 -8.701774 1.830014 4.551736 26.862144 -6.175230 5.742470 -4.304470 -17.889323 -7.848150 3.268639 -30.119891 -5.954660 0.642813 7.765168 -10.051697 -2.127936 -4.709093 2.658305 0.591810 0.748850 -0.234660 0.421650 14.108900 7.994116 4.921304 32.623407 7.874156 -2.618365 -6.823458 13.850686 -1.080945 1.827018 -1.219914 -0.515760 0.526120 0.506180 -0.086710 
0.304300 17.281680 -0.704240 -5.244727 -5.655423 7.311818 -15.294301 12.946721 2.972404 0.036869 -0.871135 -8.331242 -7.705966 4.407663 4.763339 -0.776820 4.730789 3.494483 -0.089270 -0.633370 -0.204990 18.172805 -10.809128 2.582661 -13.554897 0.812452 -10.359801 2.779268 -3.912173 1.932443 -0.319899 -3.867317 3.118133 -0.150510 1.212630 0.773030 -3.219915 -1.271357 -6.952244 4.279644 2.831901 3.244652 3.058762 2.001112 4.801405 2.326645 1.242051 -8.663972 1.846556 4.562185 26.674258 -6.126790 5.693050 -4.335690 -17.438406 -7.606065 3.190145 -29.018448 -5.977766 0.718546 7.866283 -9.921391 -2.107523 -4.719132 2.659162 0.587430 0.754700 -0.238640 0.425390 13.742052 7.724666 4.866900 31.630183 7.859372 -2.565645 -7.132923 13.700859 -1.096334 1.824364 -1.226223 -0.516820 0.529680 0.505630 -0.085030 
0.304340 17.278280 -0.703590 -5.234085 -5.681435 7.334529 -15.296022 12.942177 2.971965 -0.006646 -0.871507 -8.317579 -7.738030 4.403381 4.717805 -0.777695 4.736235 3.495235 -0.079780 -0.617340 -0.204710 18.167092 -10.798920 2.572346 -14.491601 0.834574 -10.562364 2.714541 -3.912312 1.900476 -0.320212 -3.897420 3.101413 -0.137220 1.219140 0.775450 -3.213233 -1.285344 -6.946592 4.171434 2.861804 3.245534 3.199813 2.007771 4.822927 2.264869 1.245092 -8.609818 1.860125 4.573203 26.425498 -6.065370 5.634840 -4.396430 -16.822591 -7.263905 3.093994 -27.635375 -5.982162 0.796522 8.172445 -9.699518 -2.086486 -4.730425 2.661121 0.578670 0.761580 -0.240370 0.432560 13.256170 7.358781 4.783660 30.263078 7.862930 -2.479700 -7.580500 13.387545 -1.114806 1.825975 -1.235688 -0.515330 0.533940 0.500380 -0.080060 
0.302890 17.273920 -0.701790 -5.204864 -5.712394 7.379893 -15.300466 12.935894 2.972463 -0.013105 -0.870412 -8.308623 -7.872512 4.414550 4.633919 -0.780014 4.756855 3.491463 -0.072540 -0.604060 -0.209630 18.159071 -10.781729 2.557790 -15.609625 0.860660 -10.830168 2.619537 -3.916718 1.907958 -0.315979 -3.937529 3.080283 -0.122090 1.231770 0.779150 -3.200098 -1.310846 -6.937457 3.976677 2.900515 3.203352 3.426528 2.010506 4.835926 2.168111 1.241685 -8.532963 1.864729 4.624758 26.087096 -5.988310 5.584220 -4.318050 -16.151028 -6.855613 2.975416 -25.982347 -5.982448 0.897456 8.609140 -9.323613 -2.063217 -4.750146 2.666106 0.565950 0.774630 -0.248440 0.440530 12.792126 6.923801 4.680222 28.584613 7.801169 -2.393687 -8.091831 12.986465 -1.135085 1.825530 -1.249945 -0.516360 0.537520 0.498160 -0.074670 
0.299070 17.269110 -0.700580 -5.078554 -5.685832 7.390647 -15.312332 12.933973 2.972958 -0.020015 -0.865101 -8.307777 -8.122485 4.466781 4.625806 -0.776942 4.796230 3.484892 -0.075930 -0.603800 -0.219430 18.144144 -10.752160 2.544616 -16.872776 0.879229 -11.047620 2.425745 -3.915407 1.855742 -0.310280 -3.988245 3.055140 -0.114650 1.251640 0.781230 -3.166941 -1.367187 -6.932256 3.560074 2.941787 3.152945 3.742059 2.000225 4.936724 2.046361 1.256481 -8.527606 1.884808 4.656050 25.810916 -5.938550 5.536810 -4.042500 -15.533826 -6.605222 2.940824 -23.905653 -5.818922 0.984332 8.955311 -8.893964 -2.023934 -4.774543 2.668158 0.550540 0.791260 -0.262150 0.445460 12.445240 6.630501 4.660074 26.487807 7.583902 -2.277734 -8.320013 12.419557 -1.103255 1.829486 -1.258023 -0.520760 0.543570 0.502050 -0.068590 
0.293140 17.265830 -0.699760 -4.919058 -5.722489 7.358948 -15.329026 12.932759 2.973497 -0.024009 -0.855842 -8.269375 -8.372663 4.522490 4.600799 -0.781248 4.842805 3.476134 -0.082100 -0.613270 -0.218210 18.125032 -10.714717 2.536707 -18.201001 0.893199 -11.250236 2.223368 -3.923002 1.781932 -0.304271 -4.040985 3.029271 -0.111200 1.266220 0.778630 -3.120084 -1.435593 -6.934164 3.026498 3.024032 3.145439 4.087496 2.021822 5.053111 1.960819 1.325410 -8.538934 1.986784 4.641061 25.665473 -6.093530 5.590430 -3.839760 -15.093270 -6.447134 2.930286 -21.437986 -5.517785 1.067940 9.165520 -8.344636 -1.969227 -4.799666 2.657949 0.544200 0.805830 -0.276130 0.442510 12.210113 6.406405 4.664379 24.229017 7.327892 -2.196542 -8.671791 11.806649 -1.075139 1.832096 -1.259016 -0.532630 0.552190 0.507730 -0.072740 
